<svg width="32" height="32" viewBox="0 0 32 32" fill="none" xmlns="http://www.w3.org/2000/svg">
  <!-- Background circle for better visibility -->
  <circle cx="16" cy="16" r="15" fill="#2563EB"/>

  <!-- Shopping bag body -->
  <path
    d="M8 10L6 13V25C6 25.5304 6.21071 26.0391 6.58579 26.4142C6.96086 26.7893 7.46957 27 8 27H24C24.5304 27 25.0391 26.7893 25.4142 26.4142C25.7893 26.0391 26 25.5304 26 25V13L24 10H8Z"
    fill="white"
    stroke="white"
    stroke-width="1.5"
    stroke-linecap="round"
    stroke-linejoin="round"
  />

  <!-- Bag top line -->
  <path
    d="M6 13H26"
    stroke="#2563EB"
    stroke-width="1.5"
    stroke-linecap="round"
    stroke-linejoin="round"
  />

  <!-- Bag handle -->
  <path
    d="M21 16C21 17.3261 20.4732 18.5979 19.5355 19.5355C18.5979 20.4732 17.3261 21 16 21C14.6739 21 13.4021 20.4732 12.4645 19.5355C11.5268 18.5979 11 17.3261 11 16"
    stroke="#2563EB"
    stroke-width="2"
    stroke-linecap="round"
    stroke-linejoin="round"
  />

  <!-- Small decorative elements representing items in bag -->
  <circle cx="13" cy="23" r="1.5" fill="#60A5FA"/>
  <rect x="16" y="22" width="3" height="3" rx="0.5" fill="#1E3A8A"/>

  <!-- Letter M hint at bottom -->
  <text x="16" y="9" font-family="Arial, sans-serif" font-size="5" font-weight="bold" fill="white" text-anchor="middle">M</text>
</svg>
