<svg width="32" height="32" viewBox="0 0 100 100" fill="none" xmlns="http://www.w3.org/2000/svg">
  <!-- Cart handle - left side extending up -->
  <path
    d="M5 5 C3 5 2 6 2 8 L2 18 C2 20 3 21 5 21 L12 21 L12 5 Z"
    fill="#2563EB"
  />
  
  <!-- Main cart body with M integrated at top -->
  <path
    d="M12 5 L12 21 L18 58 C18 62 21 65 25 65 L75 65 C79 65 82 62 82 58 L88 21 L88 5 L72 5 L72 15 L60 38 L50 18 L40 38 L28 15 L28 5 Z"
    fill="#2563EB"
  />
  
  <!-- M cutout - white negative space -->
  <path
    d="M28 15 L40 38 L50 18 L60 38 L72 15 L72 28 L58 52 L50 32 L42 52 L28 28 Z"
    fill="white"
  />
  
  <!-- Wheel connector bar -->
  <path
    d="M25 70 L25 75 L75 75 L75 70 C75 68 73 66 71 66 L29 66 C27 66 25 68 25 70 Z"
    fill="#2563EB"
  />
  
  <!-- Left wheel outer -->
  <circle cx="30" cy="85" r="12" fill="#2563EB" />
  <!-- Left wheel inner (white) -->
  <circle cx="30" cy="85" r="5" fill="white" />
  
  <!-- Right wheel outer -->
  <circle cx="70" cy="85" r="12" fill="#2563EB" />
  <!-- Right wheel inner (white) -->
  <circle cx="70" cy="85" r="5" fill="white" />
</svg>
